<?xml version="1.0" standalone="no"?>
<!DOCTYPE svg PUBLIC "-//W3C//DTD SVG 20010904//EN"
 "http://www.w3.org/TR/2001/REC-SVG-20010904/DTD/svg10.dtd">
<svg version="1.0" xmlns="http://www.w3.org/2000/svg"
 width="345.000000pt" height="332.000000pt" viewBox="0 0 345.000000 332.000000"
 preserveAspectRatio="xMidYMid meet">

<g transform="translate(0.000000,332.000000) scale(0.100000,-0.100000)"
fill="#000000" stroke="none">
<path d="M1596 2899 c-71 -8 -210 -39 -204 -45 2 -2 49 6 103 18 134 29 371
31 494 5 386 -82 674 -286 869 -614 60 -100 104 -209 139 -343 20 -75 26 -128
30 -255 6 -188 -8 -292 -63 -455 -246 -735 -1096 -1083 -1787 -731 -393 200
-654 583 -696 1021 -8 79 -8 81 -10 27 -2 -114 60 -351 129 -488 90 -177 254
-365 415 -475 218 -149 427 -219 685 -231 648 -28 1210 425 1325 1070 26 144
17 384 -19 522 -65 251 -179 449 -360 622 -278 270 -660 398 -1050 352z"/>
<path d="M1230 2797 c-333 -150 -583 -427 -699 -772 -35 -105 -62 -246 -60
-319 1 -41 3 -35 10 32 46 477 347 881 794 1068 44 19 73 34 65 34 -8 0 -58
-19 -110 -43z"/>
<path d="M2035 2441 c-28 -16 -68 -48 -88 -70 -29 -32 -44 -41 -70 -41 -42 0
-133 -45 -153 -76 -28 -41 -103 -78 -155 -75 -55 3 -91 -13 -140 -62 -19 -19
-54 -39 -79 -46 -58 -17 -107 -66 -115 -117 -3 -21 -11 -48 -17 -59 -60 -105
-64 -172 -17 -261 21 -40 32 -74 33 -108 l1 -49 -102 -27 c-250 -67 -404 -159
-450 -267 -19 -46 -16 -117 7 -162 74 -145 376 -266 780 -312 143 -17 516 -13
660 6 314 42 554 124 667 228 149 137 99 303 -127 417 -66 33 -251 97 -310
106 l-41 7 7 151 c4 83 11 161 15 174 41 110 -45 255 -171 292 -52 15 -54 17
-101 100 -26 47 -48 88 -48 91 -1 4 24 19 54 35 48 25 55 33 55 59 0 24 -32
95 -42 95 -2 0 -26 -13 -53 -29z m-135 -177 c0 -16 -22 -44 -31 -38 -7 4 -9
-1 -7 -12 5 -26 49 -48 81 -40 15 3 27 10 27 15 0 5 -9 7 -20 4 -23 -6 -26 13
-6 40 13 16 15 16 40 -13 32 -38 40 -69 33 -122 -14 -106 -156 -154 -235 -79
-94 87 -36 247 91 250 15 1 27 -2 27 -5z m-200 -149 c0 -83 55 -145 148 -166
49 -12 55 -11 109 17 46 24 62 38 82 77 l25 49 28 -54 c21 -39 28 -46 25 -25
-5 33 16 36 71 8 45 -23 77 -56 91 -94 12 -31 15 -96 5 -121 -5 -14 -8 -14
-27 -1 -33 23 -40 18 -17 -13 35 -47 44 -108 23 -150 -27 -54 -63 -75 -127
-76 -29 -1 -52 -5 -49 -9 18 -30 -97 -87 -175 -87 -80 0 -162 40 -162 78 l0
27 -22 -32 c-38 -53 -94 -83 -155 -83 -30 0 -67 7 -82 14 -40 21 -88 79 -97
118 -7 32 -8 32 -14 8 -8 -31 -30 -29 -82 7 -51 35 -71 82 -66 153 2 32 10 65
17 74 12 14 15 13 33 -9 28 -36 39 -31 22 10 -18 44 -18 98 1 135 22 43 67 62
130 58 49 -3 52 -2 39 14 -30 33 23 78 91 78 33 0 34 -1 25 -26 -6 -14 -10
-37 -10 -51 0 -14 -13 -41 -30 -60 -39 -44 -39 -62 0 -29 32 26 89 42 115 32
26 -10 6 13 -24 29 -23 12 -28 19 -23 42 6 35 48 93 68 93 9 0 14 -11 14 -35z
m560 -641 c-17 -139 -73 -373 -98 -410 -8 -13 -73 -36 -80 -29 -3 2 2 30 11
62 29 102 57 253 64 340 6 79 8 85 32 95 14 6 37 16 51 23 14 8 26 12 28 11 1
-2 -2 -43 -8 -92z m-901 65 c46 -14 43 -3 61 -191 6 -65 22 -166 36 -225 13
-58 21 -109 19 -112 -3 -2 -25 5 -48 16 -40 20 -45 26 -60 85 -26 96 -44 193
-57 293 -6 50 -13 105 -16 124 -4 27 -2 33 9 28 8 -3 33 -11 56 -18z m756
-142 c-16 -125 -34 -211 -66 -318 -19 -65 -20 -67 -62 -77 -23 -6 -62 -13 -86
-17 l-44 -7 7 88 c3 49 9 151 13 227 l6 137 32 0 c50 0 127 27 170 59 22 16
41 28 43 27 1 -2 -5 -55 -13 -119z m-324 66 l59 -28 -5 -90 c-10 -166 -27
-360 -32 -367 -6 -11 -101 -10 -107 0 -8 13 -44 278 -50 372 l-6 85 38 27 c20
15 38 27 40 28 2 0 30 -12 63 -27z m-301 -28 c14 -8 48 -14 76 -15 l51 0 6
-112 c6 -102 29 -275 43 -320 6 -21 -12 -23 -85 -7 -50 10 -51 12 -66 62 -41
138 -80 407 -59 407 5 -1 20 -7 34 -15z m-231 -92 c1 -17 -9 -24 -56 -39 -87
-26 -204 -88 -238 -125 l-30 -32 46 26 c58 33 132 62 218 86 l68 19 31 -125
c17 -69 38 -133 47 -143 48 -53 209 -93 375 -94 148 0 237 14 382 60 l108 35
30 96 c16 53 33 111 36 130 5 24 11 33 26 33 32 0 198 -59 258 -91 l55 -30
-40 36 c-40 37 -145 91 -220 115 -54 17 -59 23 -51 64 9 45 14 45 147 5 265
-79 401 -193 356 -301 -53 -125 -303 -231 -672 -284 -147 -22 -539 -24 -690
-5 -459 59 -756 212 -705 365 32 97 209 196 445 249 58 13 60 13 67 -7 3 -12
6 -31 7 -43z"/>
<path d="M1596 1865 c-37 -34 -32 -46 11 -24 46 23 50 23 95 0 l37 -18 -14 27
c-25 48 -86 55 -129 15z"/>
<path d="M1374 1760 c-34 -13 -36 -27 -5 -22 39 5 85 -21 104 -60 l17 -33 0
32 c0 58 -64 103 -116 83z"/>
<path d="M1893 1750 c-36 -21 -53 -48 -53 -82 0 -21 2 -20 20 9 25 42 54 56
96 49 33 -7 33 -7 28 -54 l-6 -47 21 32 c28 44 65 66 101 61 28 -4 29 -3 16
10 -8 9 -36 16 -63 17 -26 1 -61 7 -76 13 -38 16 -47 15 -84 -8z"/>
<path d="M2059 1343 c-6 -16 -17 -64 -24 -108 -7 -44 -16 -93 -20 -110 -12
-50 13 -16 35 47 20 57 39 198 26 198 -3 0 -11 -12 -17 -27z"/>
<path d="M1797 1299 c-4 -30 -7 -92 -6 -139 0 -116 19 -73 26 61 6 110 -9 168
-20 78z"/>
<path d="M1490 1282 c0 -49 21 -145 42 -195 12 -26 22 -46 24 -44 5 5 -33 209
-45 240 -13 35 -21 34 -21 -1z"/>
<path d="M874 1261 c-73 -45 -110 -131 -80 -188 18 -36 71 -83 94 -83 13 0 12
4 -6 23 -54 57 -57 143 -8 216 19 28 34 51 33 51 -1 0 -16 -9 -33 -19z"/>
<path d="M1075 1107 c-27 -102 131 -196 410 -243 124 -21 413 -24 540 -6 249
36 417 111 455 202 9 22 9 34 0 51 -12 22 -13 21 -26 -17 -7 -21 -26 -49 -41
-62 -118 -96 -402 -151 -718 -139 -225 8 -366 37 -485 98 -77 40 -97 58 -114
104 l-14 40 -7 -28z"/>
</g>
</svg>
